HIERARCHY
ROOT Hips
{
	OFFSET	0.00	0.00	0.00
	CHANNELS 6 Xposition Yposition Zposition Zrotation Xrotation Yrotation
	JOINT LeftUpLeg
	{
		OFFSET	 0.126116	-0.014019	-0.065224
		CHANNELS 3 Zrotation Xrotation Yrotation
		JOINT LeftLeg
		{
			OFFSET	 0.000000	 0.000000	 0.569914
			CHANNELS 3 Zrotation Xrotation Yrotation
			JOINT LeftFoot
			{
				OFFSET	 0.000000	 0.000000	 0.544423
				CHANNELS 3 Zrotation Xrotation Yrotation
				JOINT LeftToeBase
				{
					OFFSET	 0.000000	 0.000000	 0.207117
					CHANNELS 3 Zrotation Xrotation Yrotation
					End Site
					{
						OFFSET	 0.000000	 0.000000	 0.207117
					}
				}
			}
		}
	}
	JOINT RightUpLeg
	{
		OFFSET	-0.124023	-0.008373	-0.065224
		CHANNELS 3 Zrotation Xrotation Yrotation
		JOINT RightLeg
		{
			OFFSET	 0.000000	 0.000000	 0.570047
			CHANNELS 3 Zrotation Xrotation Yrotation
			JOINT RightFoot
			{
				OFFSET	 0.000000	 0.000000	 0.544354
				CHANNELS 3 Zrotation Xrotation Yrotation
				JOINT RightToeBase
				{
					OFFSET	 0.000000	 0.000000	 0.207540
					CHANNELS 3 Zrotation Xrotation Yrotation
					End Site
					{
						OFFSET	 0.000000	 0.000000	 0.207540
					}
				}
			}
		}
	}
	JOINT Spine
	{
		OFFSET	 0.000184	-0.007763	 0.117403
		CHANNELS 3 Zrotation Xrotation Yrotation
		JOINT Spine1
		{
			OFFSET	 0.000000	 0.000000	 0.137269
			CHANNELS 3 Zrotation Xrotation Yrotation
			JOINT Spine2
			{
				OFFSET	 0.000000	 0.000000	 0.156879
				CHANNELS 3 Zrotation Xrotation Yrotation
				JOINT LeftShoulder
				{
					OFFSET	 0.080501	-0.002496	 0.160144
					CHANNELS 3 Zrotation Xrotation Yrotation
					JOINT LeftArm
					{
						OFFSET	 0.000000	 0.000000	 0.164363
						CHANNELS 3 Zrotation Xrotation Yrotation
						JOINT LeftForeArm
						{
							OFFSET	 0.000000	 0.000000	 0.364576
							CHANNELS 3 Zrotation Xrotation Yrotation
							JOINT LeftHand
							{
								OFFSET	 0.000000	 0.000000	 0.360812
								CHANNELS 3 Zrotation Xrotation Yrotation
								JOINT LeftHandIndex1
								{
									OFFSET	 0.000000	 0.000000	 0.086006
									CHANNELS 3 Zrotation Xrotation Yrotation
									JOINT LeftHandIndex2
									{
										OFFSET	 0.000000	 0.000000	 0.047236
										CHANNELS 3 Zrotation Xrotation Yrotation
										JOINT LeftHandIndex3
										{
											OFFSET	-0.004284	-0.000551	 0.038166
											CHANNELS 3 Zrotation Xrotation Yrotation
											End Site
											{
												OFFSET	-0.004284	-0.000551	 0.038166
											}
										}
									}
								}
							}
						}
					}
				}
				JOINT Neck
				{
					OFFSET	 0.000000	 0.000000	 0.176489
					CHANNELS 3 Zrotation Xrotation Yrotation
					JOINT Head
					{
						OFFSET	 0.000000	-0.001747	 0.077940
						CHANNELS 3 Zrotation Xrotation Yrotation
						End Site
						{
							OFFSET	 0.000000	-0.001747	 0.077940
						}
					}
				}
				JOINT RightShoulder
				{
					OFFSET	-0.080363	 0.000306	 0.159706
					CHANNELS 3 Zrotation Xrotation Yrotation
					JOINT RightArm
					{
						OFFSET	 0.000000	 0.000000	 0.164196
						CHANNELS 3 Zrotation Xrotation Yrotation
						JOINT RightForeArm
						{
							OFFSET	 0.000000	 0.000000	 0.365611
							CHANNELS 3 Zrotation Xrotation Yrotation
							JOINT RightHand
							{
								OFFSET	 0.000000	 0.000000	 0.360648
								CHANNELS 3 Zrotation Xrotation Yrotation
								JOINT RightHandIndex1
								{
									OFFSET	 0.000000	 0.000000	 0.069977
									CHANNELS 3 Zrotation Xrotation Yrotation
									JOINT RightHandIndex2
									{
										OFFSET	 0.000000	 0.000000	 0.052305
										CHANNELS 3 Zrotation Xrotation Yrotation
										JOINT RightHandIndex3
										{
											OFFSET	 0.009002	-0.000782	 0.042196
											CHANNELS 3 Zrotation Xrotation Yrotation
											End Site
											{
												OFFSET	 0.009002	-0.000782	 0.042196
											}
										}
									}
								}
							}
						}
					}
				}
			}
		}
	}
}
MOTION
Frames:    7
Frame Time: 0.03333334
-0.000575	 0.021187	 1.271905	 0.003114	 0.003052	-0.146149	 2.900169	-1.571534	 177.857000	 1.481996	-11.232570	-0.654615	-6.718226	 69.952130	 0.599031	-2.385833	 28.452760	 0.000004	-3.003399	-2.412186	-177.629200	-1.455504	-12.310040	 0.706075	 6.597357	 70.301550	-0.628895	 2.384658	 28.388730	 0.000004	-10.638150	 2.763801	-0.069138	 1.717850	 3.567819	 0.687851	-5.167502	-4.428370	-1.125214	-91.776250	 78.527430	-180.000000	 53.595680	 37.988810	-52.239310	-23.405340	 2.310123	-7.717970	-38.588780	-7.981333	-5.639242	-2.635965	 4.993658	 6.788941	-5.165319	 0.784187	 3.516649	-5.225038	 0.466231	 0.424329	-0.000002	-3.783157	-0.089647	-5.020935	 4.850211	 0.212764	 89.782140	 78.203890	 180.000000	 6.313411	 13.405690	 93.627980	-19.322990	 1.385972	 17.420390	 11.736830	-10.101430	-4.634158	 6.112037	 4.509576	-0.364401	 4.968462	 1.518543	-9.347576	 5.168945	 0.703820	 2.021906
-0.000571	 0.021299	 1.272114	 0.003388	 0.004041	-0.136859	 2.899814	-1.579344	 177.848300	 1.481878	-11.242540	-0.655211	-6.718748	 69.938690	 0.600071	-2.385833	 28.452760	 0.000004	-3.004588	-2.408119	-177.637200	-1.455782	-12.287950	 0.704768	 6.590398	 70.267200	-0.622141	 2.384658	 28.388730	 0.000004	-10.391820	 2.761357	-0.060369	 1.617754	 3.567770	 0.650032	-4.865870	-4.442436	-1.061215	-91.776210	 78.527490	-180.000000	 53.590460	 37.984180	-52.222980	-23.525710	 2.342838	-7.771863	-38.496070	-7.407875	-5.534023	-2.635965	 4.993658	 6.788941	-5.165319	 0.784187	 3.516649	-5.225038	 0.466231	 0.424329	-0.000002	-3.783157	-0.089647	-4.726544	 4.881631	 0.201573	 89.782140	 78.203920	 180.000000	 6.333758	 13.470650	 93.629500	-19.259500	 1.427593	 17.511060	 11.748540	-9.558062	-4.739796	 6.112037	 4.509576	-0.364401	 4.968462	 1.518543	-9.347576	 5.168945	 0.703820	 2.021906
-0.000561	 0.021420	 1.272331	 0.003681	 0.005097	-0.125924	 2.899388	-1.588731	 177.838300	 1.481733	-11.255180	-0.655966	-6.719510	 69.924740	 0.601406	-2.385833	 28.452760	 0.000004	-3.005957	-2.402704	-177.646500	-1.456109	-12.261810	 0.703222	 6.582443	 70.228410	-0.614406	 2.384658	 28.388730	 0.000004	-10.106830	 2.758453	-0.049577	 1.497122	 3.568344	 0.604416	-4.502339	-4.459048	-0.983957	-91.776200	 78.527450	 180.000000	 53.593010	 37.981090	-52.216180	-23.655340	 2.378757	-7.830232	-38.387130	-6.771631	-5.417970	-2.635965	 4.993658	 6.788941	-5.165319	 0.784187	 3.516649	-5.225038	 0.466231	 0.424329	-0.000002	-3.783157	-0.089647	-4.371963	 4.916728	 0.187777	 89.782090	 78.203900	 180.000000	 6.338435	 13.548930	 93.622200	-19.196680	 1.471503	 17.615070	 11.759540	-8.964141	-4.859294	 6.112037	 4.509576	-0.364401	 4.968462	 1.518543	-9.347576	 5.168945	 0.703820	 2.021906
-0.000546	 0.021535	 1.272526	 0.003916	 0.006062	-0.114529	 2.898952	-1.599326	 177.827900	 1.481553	-11.270610	-0.656889	-6.720808	 69.912880	 0.603292	-2.385833	 28.452760	 0.000004	-3.007271	-2.396787	-177.656300	-1.456443	-12.235330	 0.701656	 6.574652	 70.190240	-0.606809	 2.384658	 28.388730	 0.000004	-9.814211	 2.755535	-0.038169	 1.370295	 3.569341	 0.556243	-4.120044	-4.475767	-0.902459	-91.776250	 78.527470	-179.999900	 53.605570	 37.980310	-52.223420	-23.778640	 2.413033	-7.885448	-38.274520	-6.152656	-5.305933	-2.635965	 4.993658	 6.788941	-5.165319	 0.784187	 3.516649	-5.225038	 0.466231	 0.424329	-0.000002	-3.783157	-0.089647	-3.999285	 4.950434	 0.172934	 89.782140	 78.203900	 180.000000	 6.312566	 13.621500	 93.598480	-19.140730	 1.512369	 17.723840	 11.764730	-8.387733	-4.976717	 6.112037	 4.509576	-0.364401	 4.968462	 1.518543	-9.347576	 5.168945	 0.703820	 2.021906
-0.000522	 0.021644	 1.272702	 0.004101	 0.006911	-0.102655	 2.898502	-1.611140	 177.817200	 1.481339	-11.288830	-0.657979	-6.722577	 69.902710	 0.605664	-2.385833	 28.452760	 0.000004	-3.008584	-2.390434	-177.666500	-1.456781	-12.208400	 0.700063	 6.566832	 70.152150	-0.599202	 2.384658	 28.388730	 0.000004	-9.507265	 2.752679	-0.025974	 1.236165	 3.570623	 0.505161	-3.715681	-4.492342	-0.816024	-91.776210	 78.527430	-180.000000	 53.624200	 37.987420	-52.243820	-23.896720	 2.445436	-7.937448	-38.156370	-5.542520	-5.196627	-2.635965	 4.993658	 6.788941	-5.165319	 0.784187	 3.516649	-5.225038	 0.466231	 0.424329	-0.000002	-3.783157	-0.089647	-3.605355	 4.982714	 0.156905	 89.782160	 78.203870	 179.999900	 6.249237	 13.693480	 93.567890	-19.090110	 1.552177	 17.813320	 11.765350	-7.811422	-5.093046	 6.112037	 4.509576	-0.364401	 4.968462	 1.518543	-9.347576	 5.168945	 0.703820	 2.021906
-0.000483	 0.021754	 1.272837	 0.004234	 0.007692	-0.089064	 2.897992	-1.625820	 177.805300	 1.481058	-11.312720	-0.659408	-6.725118	 69.893620	 0.608881	-2.385833	 28.452760	 0.000004	-3.009955	-2.383077	-177.678300	-1.457154	-12.178460	 0.698294	 6.558306	 70.110160	-0.590890	 2.384658	 28.388730	 0.000004	-9.147017	 2.749621	-0.011521	 1.079561	 3.572330	 0.445245	-3.243478	-4.510064	-0.714738	-91.776220	 78.527490	-180.000000	 53.661120	 37.998000	-52.288470	-24.021940	 2.481069	-7.993845	-38.018220	-4.878346	-5.079046	-2.635965	 4.993658	 6.788941	-5.165319	 0.784187	 3.516649	-5.225038	 0.466231	 0.424329	-0.000002	-3.783157	-0.089647	-3.145665	 5.016057	 0.137804	 89.782090	 78.203870	-180.000000	 6.214292	 13.802990	 93.702200	-19.033880	 1.612710	 17.582430	 11.764080	-7.167963	-5.220377	 6.112037	 4.509576	-0.364401	 4.968462	 1.518543	-9.347576	 5.168945	 0.703820	 2.021906
-0.000441	 0.021843	 1.272918	 0.004268	 0.008193	-0.076798	 2.897556	-1.640306	 177.794700	 1.480769	-11.337420	-0.660886	-6.727968	 69.887680	 0.612348	-2.385833	 28.452760	 0.000004	-3.011104	-2.376406	-177.688900	-1.457478	-12.152240	 0.696745	 6.550855	 70.073520	-0.583642	 2.384658	 28.388730	 0.000004	-8.810258	 2.749418	-0.037215	 0.933112	 3.570888	 0.463528	-2.811938	-4.521526	-0.655599	-91.776150	 78.527490	 180.000000	 53.702280	 38.014430	-52.344050	-24.127810	 2.510948	-8.040733	-37.889880	-4.307084	-4.979310	-2.635965	 4.993658	 6.788941	-5.165319	 0.784187	 3.516649	-5.225038	 0.466231	 0.424329	-0.000002	-3.783157	-0.089647	-2.723290	 5.042629	 0.119924	 89.782050	 78.203900	-180.000000	 6.184670	 13.900040	 93.892360	-18.984300	 1.672267	 17.226250	 11.753440	-6.612081	-5.330390	 6.112037	 4.509576	-0.364401	 4.968462	 1.518543	-9.347576	 5.168945	 0.703820	 2.021906
